<?xml version="1.0" encoding="UTF-8" standalone="no"?>
<!DOCTYPE svg PUBLIC "-//W3C//DTD SVG 1.1//EN"
 "http://www.w3.org/Graphics/SVG/1.1/DTD/svg11.dtd">
<!-- Generated by graphviz version 2.28.0 (20120228.1928)
 -->
<!-- Title: g Pages: 1 -->
<svg width="760pt" height="504pt"
 viewBox="0.00 0.00 760.00 504.00" xmlns="http://www.w3.org/2000/svg" xmlns:xlink="http://www.w3.org/1999/xlink">
<g id="graph1" class="graph" transform="scale(1 1) rotate(0) translate(4 500)">
<title>g</title>
<polygon fill="white" stroke="white" points="-4,5 -4,-500 757,-500 757,5 -4,5"/>
<!-- Classs -->
<g id="node1" class="node"><title>Classs</title>
<ellipse fill="#cae1ff" stroke="black" cx="326" cy="-282" rx="33.2209" ry="18"/>
<text text-anchor="middle" x="326" y="-278.3" font-family="Times,serif" font-size="14.00">Classs</text>
</g>
<!-- Course -->
<g id="node3" class="node"><title>Course</title>
<ellipse fill="#cae1ff" stroke="black" cx="417" cy="-194" rx="35.6194" ry="18"/>
<text text-anchor="middle" x="417" y="-190.3" font-family="Times,serif" font-size="14.00">Course</text>
</g>
<!-- Classs&#45;&gt;Course -->
<g id="edge2" class="edge"><title>Classs&#45;&gt;Course</title>
<path fill="none" stroke="#0000cd" d="M321.835,-263.92C320.249,-253.246 320.204,-239.728 327,-230 337.514,-214.95 355.501,-206.371 372.644,-201.481"/>
<polygon fill="#0000cd" stroke="#0000cd" points="373.72,-204.82 382.577,-199.007 372.028,-198.028 373.72,-204.82"/>
<text text-anchor="middle" x="401" y="-234.3" font-family="Times,serif" font-size="14.00" fill="#0000cd">relatedto (Domain&gt;Range)</text>
</g>
<!-- Room -->
<g id="node4" class="node"><title>Room</title>
<ellipse fill="#cae1ff" stroke="black" cx="119" cy="-194" rx="32.2457" ry="18"/>
<text text-anchor="middle" x="119" y="-190.3" font-family="Times,serif" font-size="14.00">Room</text>
</g>
<!-- Classs&#45;&gt;Room -->
<g id="edge24" class="edge"><title>Classs&#45;&gt;Room</title>
<path fill="none" stroke="#0000cd" d="M292.696,-281.905C255.085,-281.325 193.59,-275.383 151,-246 141.966,-239.767 134.959,-230.068 129.837,-220.794"/>
<polygon fill="#0000cd" stroke="#0000cd" points="132.944,-219.181 125.337,-211.806 126.684,-222.315 132.944,-219.181"/>
<text text-anchor="middle" x="234.5" y="-234.3" font-family="Times,serif" font-size="14.00" fill="#0000cd">takesplacein (Domain&gt;Range)</text>
</g>
<!-- Building -->
<g id="node2" class="node"><title>Building</title>
<ellipse fill="#cae1ff" stroke="black" cx="119" cy="-106" rx="41.394" ry="18"/>
<text text-anchor="middle" x="119" y="-102.3" font-family="Times,serif" font-size="14.00">Building</text>
</g>
<!-- Way -->
<g id="node11" class="node"><title>Way</title>
<ellipse fill="lightgrey" stroke="black" cx="499" cy="-18" rx="27.4223" ry="18"/>
<text text-anchor="middle" x="499" y="-14.3" font-family="Times,serif" font-size="14.00">Way</text>
</g>
<!-- Building&#45;&gt;Way -->
<g id="edge6" class="edge"><title>Building&#45;&gt;Way</title>
<path fill="none" stroke="#0000cd" d="M154.749,-96.9093C227.301,-80.4897 391.065,-43.4274 463.45,-27.0456"/>
<polygon fill="#0000cd" stroke="#0000cd" points="464.464,-30.4047 473.445,-24.7836 462.919,-23.5773 464.464,-30.4047"/>
<text text-anchor="middle" x="425.5" y="-58.3" font-family="Times,serif" font-size="14.00" fill="#0000cd">geolocation (Domain&gt;Range)</text>
</g>
<!-- Teacher -->
<g id="node5" class="node"><title>Teacher</title>
<ellipse fill="#cae1ff" stroke="black" cx="506" cy="-106" rx="38.4949" ry="18"/>
<text text-anchor="middle" x="506" y="-102.3" font-family="Times,serif" font-size="14.00">Teacher</text>
</g>
<!-- Course&#45;&gt;Teacher -->
<g id="edge8" class="edge"><title>Course&#45;&gt;Teacher</title>
<path fill="none" stroke="#0000cd" d="M412.86,-175.938C411.284,-165.27 411.242,-151.754 418,-142 427.616,-128.122 443.676,-119.746 459.464,-114.691"/>
<polygon fill="#0000cd" stroke="#0000cd" points="460.52,-118.03 469.2,-111.954 458.625,-111.292 460.52,-118.03"/>
<text text-anchor="middle" x="499.5" y="-146.3" font-family="Times,serif" font-size="14.00" fill="#0000cd">managedby (Domain&gt;Range)</text>
</g>
<!-- Room&#45;&gt;Building -->
<g id="edge10" class="edge"><title>Room&#45;&gt;Building</title>
<path fill="none" stroke="#0000cd" d="M119,-175.597C119,-163.746 119,-147.817 119,-134.292"/>
<polygon fill="#0000cd" stroke="#0000cd" points="122.5,-134.084 119,-124.084 115.5,-134.084 122.5,-134.084"/>
<text text-anchor="middle" x="194" y="-146.3" font-family="Times,serif" font-size="14.00" fill="#0000cd">locatedin (Domain&gt;Range)</text>
</g>
<!-- Thing -->
<g id="node7" class="node"><title>Thing</title>
<ellipse fill="lightgrey" stroke="black" cx="410" cy="-478" rx="31.2735" ry="18"/>
<text text-anchor="middle" x="410" y="-474.3" font-family="Times,serif" font-size="14.00">Thing</text>
</g>
<!-- Thing&#45;&gt;Building -->
<g id="edge14" class="edge"><title>Thing&#45;&gt;Building</title>
<path fill="none" stroke="black" d="M378.509,-477.088C282.502,-476.518 0,-468.275 0,-391 0,-391 0,-391 0,-193 0,-154.836 40.7034,-131.896 74.4997,-119.427"/>
<polygon fill="black" stroke="black" points="75.9629,-122.624 84.2604,-116.036 73.6656,-116.012 75.9629,-122.624"/>
<text text-anchor="middle" x="33.5" y="-278.3" font-family="Times,serif" font-size="14.00">has subclass</text>
</g>
<!-- Thing&#45;&gt;Course -->
<g id="edge16" class="edge"><title>Thing&#45;&gt;Course</title>
<path fill="none" stroke="black" d="M432.652,-465.283C441.466,-459.509 450.704,-451.685 456,-442 482.528,-393.49 460.347,-373 466,-318 469.297,-285.92 472.996,-278.187 475,-246 475.442,-238.903 478.496,-236.193 475,-230 470.194,-221.487 462.394,-214.812 454.051,-209.679"/>
<polygon fill="black" stroke="black" points="455.716,-206.601 445.263,-204.876 452.359,-212.743 455.716,-206.601"/>
<text text-anchor="middle" x="499.5" y="-332.3" font-family="Times,serif" font-size="14.00">has subclass</text>
</g>
<!-- AcademicStaff -->
<g id="node9" class="node"><title>AcademicStaff</title>
<ellipse fill="lightgrey" stroke="black" cx="606" cy="-336" rx="63.5411" ry="18"/>
<text text-anchor="middle" x="606" y="-332.3" font-family="Times,serif" font-size="14.00">AcademicStaff</text>
</g>
<!-- Thing&#45;&gt;AcademicStaff -->
<g id="edge4" class="edge"><title>Thing&#45;&gt;AcademicStaff</title>
<path fill="none" stroke="black" d="M435.216,-467.08C449.957,-460.798 468.627,-451.989 484,-442 521.053,-417.924 558.878,-383.53 582.385,-360.75"/>
<polygon fill="black" stroke="black" points="585.091,-363 589.787,-353.502 580.193,-357.998 585.091,-363"/>
<text text-anchor="middle" x="538.5" y="-430.3" font-family="Times,serif" font-size="14.00">has subclass</text>
</g>
<!-- Thing&#45;&gt;Way -->
<g id="edge22" class="edge"><title>Thing&#45;&gt;Way</title>
<path fill="none" stroke="black" d="M440.746,-473.967C512.506,-466.04 685,-441.711 685,-391 685,-391 685,-391 685,-105 685,-40.2956 591.119,-24.1221 536.752,-20.1808"/>
<polygon fill="black" stroke="black" points="536.642,-16.6674 526.445,-19.5449 536.21,-23.6541 536.642,-16.6674"/>
<text text-anchor="middle" x="718.5" y="-234.3" font-family="Times,serif" font-size="14.00">has subclass</text>
</g>
<!-- Event -->
<g id="node14" class="node"><title>Event</title>
<ellipse fill="lightgrey" stroke="black" cx="364" cy="-390" rx="31.2965" ry="18"/>
<text text-anchor="middle" x="364" y="-386.3" font-family="Times,serif" font-size="14.00">Event</text>
</g>
<!-- Thing&#45;&gt;Event -->
<g id="edge18" class="edge"><title>Thing&#45;&gt;Event</title>
<path fill="none" stroke="black" d="M399.881,-460.784C396.33,-454.928 392.385,-448.225 389,-442 384.598,-433.906 380.079,-424.926 376.115,-416.786"/>
<polygon fill="black" stroke="black" points="379.243,-415.215 371.756,-407.718 372.934,-418.247 379.243,-415.215"/>
<text text-anchor="middle" x="422.5" y="-430.3" font-family="Times,serif" font-size="14.00">has subclass</text>
</g>
<!-- SpatialThing -->
<g id="node22" class="node"><title>SpatialThing</title>
<ellipse fill="lightgrey" stroke="black" cx="147" cy="-336" rx="55.3436" ry="18"/>
<text text-anchor="middle" x="147" y="-332.3" font-family="Times,serif" font-size="14.00">SpatialThing</text>
</g>
<!-- Thing&#45;&gt;SpatialThing -->
<g id="edge28" class="edge"><title>Thing&#45;&gt;SpatialThing</title>
<path fill="none" stroke="black" d="M382.424,-469.123C362.173,-462.893 334.257,-453.368 311,-442 261.443,-417.776 208.437,-381.778 176.51,-358.855"/>
<polygon fill="black" stroke="black" points="178.237,-355.784 168.084,-352.756 174.133,-361.455 178.237,-355.784"/>
<text text-anchor="middle" x="344.5" y="-430.3" font-family="Times,serif" font-size="14.00">has subclass</text>
</g>
<!-- AcademicStaff&#45;&gt;Teacher -->
<g id="edge20" class="edge"><title>AcademicStaff&#45;&gt;Teacher</title>
<path fill="none" stroke="black" d="M604.006,-317.899C598.548,-271.342 583.599,-145.554 581,-142 573.236,-131.384 561.436,-123.886 549.479,-118.632"/>
<polygon fill="black" stroke="black" points="550.517,-115.279 539.929,-114.883 547.959,-121.795 550.517,-115.279"/>
<text text-anchor="middle" x="628.5" y="-234.3" font-family="Times,serif" font-size="14.00">has subclass</text>
</g>
<!-- Event&#45;&gt;Classs -->
<g id="edge12" class="edge"><title>Event&#45;&gt;Classs</title>
<path fill="none" stroke="black" d="M357.895,-371.969C351.856,-355.125 342.527,-329.102 335.516,-309.544"/>
<polygon fill="black" stroke="black" points="338.76,-308.221 332.09,-299.988 332.17,-310.583 338.76,-308.221"/>
<text text-anchor="middle" x="384.5" y="-332.3" font-family="Times,serif" font-size="14.00">has subclass</text>
</g>
<!-- SpatialThing&#45;&gt;Room -->
<g id="edge26" class="edge"><title>SpatialThing&#45;&gt;Room</title>
<path fill="none" stroke="black" d="M143.567,-317.833C138.801,-294.007 130.132,-250.658 124.47,-222.349"/>
<polygon fill="black" stroke="black" points="127.855,-221.427 122.461,-212.307 120.991,-222.799 127.855,-221.427"/>
<text text-anchor="middle" x="173.5" y="-278.3" font-family="Times,serif" font-size="14.00">has subclass</text>
</g>
</g>
</svg>
